inDegrees=no
num_controls=7
num_derivatives=13
num_iterations=200
num_multipliers=7
num_parameters=0
num_slacks=7
num_states=26
objective=5.972896
objective_accelerations=0.793589
objective_balance=0.007142
objective_effort=0.532598
objective_height=4.524325
objective_ligament=0.115242
solver_duration=1666.525891
status=Solve_Succeeded
success=true
DataType=double
version=3
OpenSimVersion=4.4-2022-07-23-0e9fedc
endheader
time	/jointset/ground_pelvis/pelvis_tilt/value	/jointset/ground_pelvis/pelvis_tx/value	/jointset/ground_pelvis/pelvis_ty/value	/jointset/hip_r/hip_flexion_r/value	/jointset/hip_r/hip_adduction_r/value	/jointset/hip_r/hip_rotation_r/value	/jointset/back/lumbar_extension/value	/jointset/patellofemoral_r/patellar_flexion_r/value	/jointset/knee_r/knee_flexion_r/value	/jointset/knee_r/knee_adduction_r/value	/jointset/knee_r/knee_rotation_r/value	/jointset/ankle_r/ankle_angle_r/value	/jointset/subtalar_r/subtalar_angle_r/value	/jointset/ground_pelvis/pelvis_tilt/speed	/jointset/ground_pelvis/pelvis_tx/speed	/jointset/ground_pelvis/pelvis_ty/speed	/jointset/hip_r/hip_flexion_r/speed	/jointset/hip_r/hip_adduction_r/speed	/jointset/hip_r/hip_rotation_r/speed	/jointset/back/lumbar_extension/speed	/jointset/patellofemoral_r/patellar_flexion_r/speed	/jointset/knee_r/knee_flexion_r/speed	/jointset/knee_r/knee_adduction_r/speed	/jointset/knee_r/knee_rotation_r/speed	/jointset/ankle_r/ankle_angle_r/speed	/jointset/subtalar_r/subtalar_angle_r/speed	/forceset/tau_hip_flexion_r	/forceset/tau_hip_adduction_r	/forceset/tau_hip_rotation_r	/forceset/tau_knee_flexion_r	/forceset/tau_ankle_angle_r	/forceset/tau_subtalar_angle_r	/forceset/tau_lumbar_extension	lambda_cid13_p0	lambda_cid14_p0	lambda_cid14_p1	lambda_cid14_p2	lambda_cid14_p3	lambda_cid14_p4	lambda_cid14_p5	/jointset/ground_pelvis/pelvis_tilt/accel	/jointset/ground_pelvis/pelvis_tx/accel	/jointset/ground_pelvis/pelvis_ty/accel	/jointset/hip_r/hip_flexion_r/accel	/jointset/hip_r/hip_adduction_r/accel	/jointset/hip_r/hip_rotation_r/accel	/jointset/back/lumbar_extension/accel	/jointset/patellofemoral_r/patellar_flexion_r/accel	/jointset/knee_r/knee_flexion_r/accel	/jointset/knee_r/knee_adduction_r/accel	/jointset/knee_r/knee_rotation_r/accel	/jointset/ankle_r/ankle_angle_r/accel	/jointset/subtalar_r/subtalar_angle_r/accel	gamma_cid13_p0	gamma_cid14_p0	gamma_cid14_p1	gamma_cid14_p2	gamma_cid14_p3	gamma_cid14_p4	gamma_cid14_p5
0.5	-0.162895076257578	0.0009119564591411426	0.7748614426824429	1.020460134979875	-0.2190476604524792	-0.1245070262904192	-0.663359684475949	1.059126368906055	1.059126368906019	-0.09008615127945763	0.1745019909926102	0.3014630362172118	0.1473875070828577	-0.4314102651345252	-0.2231405182658619	-0.6334606209587799	2.20354393423049	-0.06527962620394015	0.2553907133294365	-0.7273107689728815	2.212835150065258	2.212835150065254	-0.3832988660155731	0.002492708038759478	0.5336973843152395	0.1153739184981611	-0.2152752893887815	-0.004763412371136008	0.01852931414071515	-0.3200497514774766	0.03544906717767308	0.007813907657815465	0.2540411922430326	-4.047283479015668	-30.54881709654019	-1.826842020168599	0.5664562014698362	-9.092818244365859	-639.3531241201592	71.61453830908439	0.6125571247978532	0.8044461184802379	-0.4970622420429643	-1.549301303394912	-0.1051355884860797	-0.1680965846372958	2.129147669309393	-1.508758868174776	-1.508758868174771	0.6972966415447447	-0.1786162370264494	-0.7499663187605036	-0.3758242261699709	-3.046654915482123e-08	2.423829930452787e-07	2.478462574373784e-06	1.113865288647477e-06	-3.656780743931128e-07	-2.113275268676529e-07	1.863494203504719e-06
0.51	-0.1671775900127345	-0.00127905695735709	0.768503472557552	1.042414801834383	-0.2197061607566101	-0.1219644555925955	-0.6705258447988386	1.081175789521136	1.081175789521122	-0.09388504392985592	0.1745210042661657	0.3067613648493984	0.1485212040159877	-0.425017298053273	-0.2150455861684551	-0.6379881644638243	2.187094639111815	-0.06642030121670707	0.253118060947221	-0.7058439343123633	2.196756186570945	2.196756186570948	-0.3764169776707286	0.00136111921940316	0.5258816664406929	0.1113141690977723	-0.2224721671511694	-0.004356322258975664	0.01873884935979684	-0.3263954312866413	0.03512570528616871	0.008151738818212524	0.260768707129551	-3.291213314362352	-31.04733690013147	-1.894079354999946	0.7218628636103626	-9.107199826728406	-645.6362403345313	72.28286109363926	0.6639814662334936	0.814429874381952	-0.4088548961938988	-1.736925152064726	-0.1182379101635563	-0.2577375717755143	2.167055558328882	-1.701378361553056	-1.701378361552045	0.6933544325651437	-0.07245329567455343	-0.8104320385603111	-0.4282265887786729	-1.714160296390911e-08	2.564967580424705e-07	2.419549799000073e-06	1.177355879390364e-06	-3.706197718238602e-07	-1.965628493988682e-07	1.896300149971903e-06
0.52	-0.1713939111037873	-0.003388638429079172	0.7621045760993189	1.064196139430515	-0.2203760087013723	-0.1194447890199287	-0.6774750159363411	1.103055637846967	1.103055637846981	-0.09761317379648488	0.1745302970332298	0.3119789247994871	0.1496128681967526	-0.4181717323142449	-0.2068541293106318	-0.6416458876271949	2.168878082554694	-0.06754915432915298	0.250809888294535	-0.6839129318956106	2.178920692216892	2.178920692216901	-0.369146309261455	0.0005486067486735043	0.517543647895804	0.1069673680251711	-0.2296690449135427	-0.003949232146765496	0.01894838457879736	-0.3327411110958173	0.03480234339467611	0.008489569978693779	0.2674962220160808	-2.614249998899609	-31.54118703108889	-1.952193513973636	0.8663293967263996	-9.16251427506268	-651.8802947470233	72.97370596545534	0.7030768563530297	0.8237510705634933	-0.3230981737081469	-1.902753591084374	-0.102771208421821	-0.1752006387312822	2.22198122055629	-1.860065040123044	-1.860065040123016	0.7750526544305156	-0.1148009673012982	-0.854426452829003	-0.4332345606123599	-4.442775216984126e-09	2.693586483369547e-07	2.363360810234931e-06	1.228975453235691e-06	-3.747949627255294e-07	-1.853272102739521e-07	1.93418121577468e-06
0.53	-0.175539645907433	-0.005415916789518447	0.7556734650632205	1.085786741623057	-0.2210569342802298	-0.1169482345954544	-0.6842026677820189	1.124748545714346	1.124748545714365	-0.1012669542963407	0.1745326825947706	0.3171106267554746	0.1506598880757926	-0.4109066652081397	-0.1985937009639984	-0.6444280957553745	2.148960691399822	-0.06862266417156491	0.2485098987265127	-0.6615582660658301	2.159381643585028	2.15938164358505	-0.3615612049521215	-4.772006964255414e-05	0.5087216755301049	0.1024091274002237	-0.2367090602473738	-0.003644694802307022	0.01907120516669887	-0.3391641299857029	0.03431336329297127	0.008825488297634972	0.2740297485520435	-2.015961149767985	-32.09435233768699	-2.011092777990187	0.999004560428122	-9.087361604048724	-658.1589470495931	73.68494792520583	0.7485457330815734	0.8282895910064024	-0.2335844419669494	-2.078440191037216	-0.107376357378537	-0.2561230798082317	2.251084940316009	-2.042710871118637	-2.042710871116779	0.7578125449130578	-0.02815560014767594	-0.9073911704525929	-0.4707281955078169	9.196307378201363e-09	2.820126598176514e-07	2.300716089477958e-06	1.284111196072716e-06	-3.774284167602784e-07	-1.752597703572749e-07	1.971647577104983e-06
0.54	-0.1796106652209463	-0.007360370691632896	0.7492189714839215	1.107169728241383	-0.2217481420545623	-0.1144744250594327	-0.6907049978341725	1.146237685876121	1.146237685876149	-0.1048433691079642	0.1745298834766529	0.3221518472794017	0.1516606036721688	-0.4032286342883507	-0.1902892376456667	-0.6463223962672884	2.127354967711003	-0.06960559342310568	0.2462609105996686	-0.6388485731909662	2.138167151097142	2.138167151097177	-0.3536731716136605	-0.0004883293299916634	0.4994473614839174	0.0977065114923997	-0.2437490755811901	-0.003340157457786712	0.01919402575461721	-0.3455871488755887	0.03382438319128116	0.009161406616679812	0.2805632750880173	-1.496222820609374	-32.64406365093588	-2.061136690363528	1.120845466365378	-9.05240926200071	-664.4190788915398	74.41755831899945	0.7856696190897769	0.8325580649031153	-0.1455166504549907	-2.240420097873562	-0.08465509024767282	-0.1650003504957705	2.292986629572937	-2.195153811327557	-2.195153811327607	0.8356384602560436	-0.08365745570769267	-0.9448947889267497	-0.4621096171878228	2.387567193316444e-08	2.944366777171363e-07	2.230928856730026e-06	1.343137168432472e-06	-3.783561193677965e-07	-1.664848061603512e-07	2.008655116465743e-06
0.55	-0.1836029854987181	-0.009221646939661227	0.7427499732470255	1.128328474404447	-0.222448554768207	-0.1120227412401348	-0.6969785899334191	1.167506488514607	1.16750648851463	-0.1083397095914389	0.1745230331751415	0.3270982051977888	0.1526138863018257	-0.3951749385432989	-0.1819661893338234	-0.6473276421176497	2.104125638079498	-0.07045094334133786	0.2440962027351513	-0.6158309683699754	2.115327611890398	2.115327611890391	-0.3455586127689183	-0.0008853285550122214	0.4897616463745507	0.09294801424237102	-0.250527861405888	-0.002983802252492315	0.01922710869581968	-0.352089175329616	0.03330713381615515	0.00938925185512	0.2868088234901826	-1.055220172237892	-33.21128691789086	-2.165869818830046	1.256757003952809	-8.912082106974683	-670.6067885398193	75.0394973861633	0.824334822426844	0.8320758357217812	-0.05561954291411327	-2.404438527053365	-0.08030754509053047	-0.2391850691844841	2.311979151640656	-2.368225058217716	-2.368225058224078	0.8050601881783012	-0.01790636242819583	-0.989835878970728	-0.4825155136460756	3.72245783157753e-08	3.048278332064448e-07	2.162597053487872e-06	1.391486237319744e-06	-3.77994248420781e-07	-1.590422808729937e-07	2.043107146209774e-06
